HIERARCHY
ROOT Hips
{
	OFFSET 0.000000 0.000000 0.000000
	CHANNELS 6 Xposition Yposition Zposition Xrotation Yrotation Zrotation
	JOINT LeftUpLeg_virtual
	{
		OFFSET 0.000000 0.000000 0.000000
		CHANNELS 3 Xrotation Yrotation Zrotation
		JOINT LeftUpLeg
		{
			OFFSET 11.394100 -6.187798 -0.413800
			CHANNELS 3 Xrotation Yrotation Zrotation
			JOINT LeftLeg
			{
				OFFSET 0.430247 -32.302673 3.732800
				CHANNELS 3 Xrotation Yrotation Zrotation
				JOINT LeftFoot
				{
					OFFSET -0.430247 -48.264931 -6.423300
					CHANNELS 3 Xrotation Yrotation Zrotation
					JOINT LeftToeBase
					{
						OFFSET 4.230900 -16.068199 23.438400
						CHANNELS 3 Xrotation Yrotation Zrotation
						JOINT LeftToe_End
						{
							OFFSET 4.510700 0.695400 19.974600
							CHANNELS 3 Xrotation Yrotation Zrotation
							End Site
							{
								OFFSET 0 0 0
							}
						}
					}
				}
			}
		}
	}
	JOINT RightUpLeg_virtual
	{
		OFFSET 0.000000 0.000000 0.000000
		CHANNELS 3 Xrotation Yrotation Zrotation
		JOINT RightUpLeg
		{
			OFFSET -11.333700 -6.187798 -0.413800
			CHANNELS 3 Xrotation Yrotation Zrotation
			JOINT RightLeg
			{
				OFFSET -0.430392 -32.302628 3.733000
				CHANNELS 3 Xrotation Yrotation Zrotation
				JOINT RightFoot
				{
					OFFSET 0.430392 -48.264973 -6.423500
					CHANNELS 3 Xrotation Yrotation Zrotation
					JOINT RightToeBase
					{
						OFFSET -4.230900 -16.068199 23.438400
						CHANNELS 3 Xrotation Yrotation Zrotation
						JOINT RightToe_End
						{
							OFFSET -4.510700 0.695400 19.974600
							CHANNELS 3 Xrotation Yrotation Zrotation
							End Site
							{
								OFFSET 0 0 0
							}
						}
					}
				}
			}
		}
	}
	JOINT Spine_virtual
	{
		OFFSET 0.000000 0.000000 0.000000
		CHANNELS 3 Xrotation Yrotation Zrotation
		JOINT Spine
		{
			OFFSET -0.002400 12.777504 0.315300
			CHANNELS 3 Xrotation Yrotation Zrotation
			JOINT Spine1
			{
				OFFSET -0.002067 5.816869 0.032633
				CHANNELS 3 Xrotation Yrotation Zrotation
				JOINT Spine1_split
				{
					OFFSET -0.002067 5.816869 0.032633
					CHANNELS 3 Xrotation Yrotation Zrotation
					JOINT Spine2
					{
						OFFSET -0.002067 5.816869 0.032633
						CHANNELS 3 Xrotation Yrotation Zrotation
						JOINT Neck_virtual
						{
							OFFSET 0.000000 0.000000 0.000000
							CHANNELS 3 Xrotation Yrotation Zrotation
							JOINT Neck
							{
								OFFSET -0.003700 21.199493 -0.826900
								CHANNELS 3 Xrotation Yrotation Zrotation
								JOINT Head
								{
									OFFSET 0.000000 20.442200 4.834800
									CHANNELS 3 Xrotation Yrotation Zrotation
									JOINT HeadTop_End
									{
										OFFSET 0.000000 34.668396 4.968400
										CHANNELS 3 Xrotation Yrotation Zrotation
										End Site
										{
											OFFSET 0 0 0
										}
									}
								}
							}
						}
						JOINT LeftShoulder_virtual
						{
							OFFSET 0.000000 0.000000 0.000000
							CHANNELS 3 Xrotation Yrotation Zrotation
							JOINT LeftShoulder
							{
								OFFSET 3.288150 8.794197 -1.372250
								CHANNELS 3 Xrotation Yrotation Zrotation
								JOINT LeftShoulder_split
								{
									OFFSET 3.288150 8.794197 -1.372250
									CHANNELS 3 Xrotation Yrotation Zrotation
									JOINT LeftArm
									{
										OFFSET 11.953299 -2.279007 -0.146200
										CHANNELS 3 Xrotation Yrotation Zrotation
										JOINT LeftForeArm
										{
											OFFSET 18.448900 0.000000 0.000000
											CHANNELS 3 Xrotation Yrotation Zrotation
											JOINT LeftHand
											{
												OFFSET 29.527798 0.000000 0.000000
												CHANNELS 3 Xrotation Yrotation Zrotation
												End Site
												{
													OFFSET 0 0 0
												}
											}
										}
									}
								}
							}
						}
						JOINT RightShoulder_virtual
						{
							OFFSET 0.000000 0.000000 0.000000
							CHANNELS 3 Xrotation Yrotation Zrotation
							JOINT RightShoulder
							{
								OFFSET -3.249400 8.794197 -1.372250
								CHANNELS 3 Xrotation Yrotation Zrotation
								JOINT RightShoulder_split
								{
									OFFSET -3.249400 8.794197 -1.372250
									CHANNELS 3 Xrotation Yrotation Zrotation
									JOINT RightArm
									{
										OFFSET -11.953299 -2.279007 -0.146200
										CHANNELS 3 Xrotation Yrotation Zrotation
										JOINT RightForeArm
										{
											OFFSET -18.448900 0.000000 0.000000
											CHANNELS 3 Xrotation Yrotation Zrotation
											JOINT RightHand
											{
												OFFSET -29.527802 0.000000 0.000000
												CHANNELS 3 Xrotation Yrotation Zrotation
												End Site
												{
													OFFSET 0 0 0
												}
											}
										}
									}
								}
							}
						}
					}
				}
			}
		}
	}
}
MOTION
Frames: 4
Frame Time: 0.03333333
4.838619 96.113640 -10.690460 0.000000 0.000000 0.000000 5.067996 2.164193 -0.270718 -47.171919 2.980888 6.676677 27.996855 6.503693 5.213228 12.697699 -7.157466 -6.693829 5.881179 -1.786811 3.373000 0.000000 0.000000 0.000000 5.544550 -1.161463 -0.138495 -11.533821 -17.676700 -9.614220 24.850105 2.448591 -1.416895 -18.316675 -14.395141 17.515733 4.054439 7.592825 -10.479326 0.000000 0.000000 0.000000 6.869241 5.233034 -2.092532 19.166943 0.972232 0.866965 3.144633 1.012668 0.018139 0.071294 -0.051904 -0.017608 0.000000 0.000000 0.000000 5.715825 4.012791 1.027076 -13.637394 16.244533 5.114863 -18.841709 -27.819654 -26.855163 0.000000 0.000000 0.000000 5.010378 2.296974 -0.251420 -0.159303 -24.174534 4.939247 2.387051 3.848794 -4.797599 -18.056121 -22.155199 -70.562739 7.686376 -57.116811 1.984533 0.000000 0.000000 0.000000 6.668670 2.240610 0.634856 2.361027 14.723000 -8.069564 -2.420295 -0.293407 -0.002026 -36.243115 25.647236 82.200685 -38.309691 48.510288 36.378288 0.000000 0.000000 0.000000 
5.019445 96.103790 -10.274708 0.000000 0.000000 0.000000 5.329681 2.921037 -0.374135 -47.341079 2.751726 6.099547 28.222243 6.887602 5.242850 12.513212 -7.596088 -6.062392 5.813305 -1.679757 3.655527 0.000000 0.000000 0.000000 5.796192 -0.496291 -0.237244 -10.651505 -18.037524 -9.544848 24.135131 2.454581 -1.403264 -18.619120 -14.731320 17.728973 4.067487 7.710528 -10.587119 0.000000 0.000000 0.000000 7.196803 6.015413 -2.194410 19.066758 0.613346 0.616128 3.218100 1.230150 -0.230496 0.077494 -0.056546 -0.014585 0.000000 0.000000 0.000000 5.770032 4.269696 0.740637 -13.294112 16.556913 4.899004 -19.948793 -26.979582 -27.174966 0.000000 0.000000 0.000000 5.097965 2.546983 -0.511552 -0.219205 -24.404942 5.199023 2.222837 3.907155 -5.017154 -16.788668 -22.380908 -69.954347 6.690922 -57.392113 2.310201 0.000000 0.000000 0.000000 6.747663 2.514225 0.339949 2.055086 14.596155 -7.828909 -2.399727 -0.521540 0.198632 -36.700024 25.788230 82.720209 -38.467888 48.016431 36.445630 0.000000 0.000000 0.000000 
5.174358 96.070335 -9.879677 0.000000 0.000000 0.000000 5.588848 3.551763 -0.457900 -47.513999 2.577243 5.598446 28.473360 7.263145 5.269756 12.302457 -7.971142 -5.474504 5.725085 -1.593811 3.936038 0.000000 0.000000 0.000000 6.046932 0.074046 -0.316759 -9.851505 -18.264109 -9.489629 23.547919 2.469475 -1.408095 -18.904509 -15.040073 17.973057 4.039914 7.817721 -10.704367 0.000000 0.000000 0.000000 7.483110 6.653102 -2.263235 18.944834 0.284578 0.350216 3.304964 1.427205 -0.469729 0.079849 -0.063875 -0.009839 0.000000 0.000000 0.000000 5.846038 4.499775 0.462922 -12.979210 16.770426 4.762495 -20.993278 -26.196014 -27.387631 0.000000 0.000000 0.000000 5.188314 2.767851 -0.753387 -0.269366 -24.709090 5.411809 2.094426 3.974645 -5.172980 -15.464880 -22.677748 -69.259286 5.756221 -57.603124 2.650439 0.000000 0.000000 0.000000 6.831127 2.758522 0.061747 1.794714 14.640058 -7.703546 -2.438991 -0.722668 0.393992 -36.944022 25.869408 83.131619 -38.585924 47.611159 36.582947 0.000000 0.000000 0.000000 
5.306296 96.017227 -9.502171 0.000000 0.000000 0.000000 5.848469 4.081215 -0.533577 -47.698814 2.437408 5.167468 28.743936 7.618727 5.298089 12.090627 -8.297258 -4.944002 5.608590 -1.527428 4.194332 0.000000 0.000000 0.000000 6.301089 0.568456 -0.385918 -9.147018 -18.379556 -9.447209 23.082351 2.485931 -1.425858 -19.171252 -15.323505 18.219497 3.997396 7.912293 -10.810885 0.000000 0.000000 0.000000 7.749843 7.177348 -2.309410 18.795897 -0.017420 0.090266 3.399740 1.599060 -0.705782 0.082482 -0.076475 -0.005282 0.000000 0.000000 0.000000 5.932930 4.698793 0.187721 -12.701711 16.899539 4.723574 -21.880173 -25.444236 -27.483276 0.000000 0.000000 0.000000 5.277612 2.955013 -0.986699 -0.303745 -25.110174 5.586797 1.982091 4.042650 -5.286133 -14.086346 -23.008664 -68.471690 4.853076 -57.676556 2.973372 0.000000 0.000000 0.000000 6.909754 2.967513 -0.206336 1.578081 14.842109 -7.671309 -2.499434 -0.870241 0.565757 -36.969676 25.937940 83.397388 -38.722924 47.311706 36.837693 0.000000 0.000000 0.000000 
